<svg version="1.1" xmlns="http://www.w3.org/2000/svg" xmlns:xlink="http://www.w3.org/1999/xlink" width="1846" height="906"><defs><clipPath id="zoRDEEtnPSuS"><path fill="none" stroke="none" d=" M 0 0 L 1846 0 L 1846 906 L 0 906 L 0 0 Z"/></clipPath></defs><g transform="scale(1,1)" clip-path="url(#zoRDEEtnPSuS)"><g><rect fill="rgb(255,255,255)" stroke="none" x="0" y="0" width="1846" height="906" fill-opacity="1"/><path fill="rgb(153,51,0)" stroke="none" paint-order="stroke fill markers" fill-rule="evenodd" d=" M 763 161 L 442.00000000000006 469 L 863 458 Z" fill-opacity="0.09803921568627451"/><path fill="rgb(153,51,0)" stroke="none" paint-order="stroke fill markers" fill-rule="evenodd" d=" M 1350.9121796100628 145.63887416695798 L 1029.912179610063 453.638874166958 L 1450.912179610063 442.638874166958 Z" fill-opacity="0.09803921568627451"/><path fill="none" stroke="rgb(0,0,0)" paint-order="fill stroke markers" d=" M 763 161 L 442.00000000000006 469" stroke-opacity="0.6980392156862745" stroke-linecap="round" stroke-linejoin="round" stroke-miterlimit="10" stroke-width="2.5"/><path fill="none" stroke="rgb(0,0,0)" paint-order="fill stroke markers" d=" M 442.00000000000006 469 L 863 458" stroke-opacity="0.6980392156862745" stroke-linecap="round" stroke-linejoin="round" stroke-miterlimit="10" stroke-width="2.5"/><path fill="none" stroke="rgb(0,0,0)" paint-order="fill stroke markers" d=" M 863 458 L 763 161" stroke-opacity="0.6980392156862745" stroke-linecap="round" stroke-linejoin="round" stroke-miterlimit="10" stroke-width="2.5"/><path fill="none" stroke="rgb(153,51,0)" paint-order="fill stroke markers" d=" M 763 161 L 442.00000000000006 469" stroke-opacity="0.6980392156862745" stroke-linecap="round" stroke-linejoin="round" stroke-miterlimit="10" stroke-width="2.5"/><path fill="none" stroke="rgb(153,51,0)" paint-order="fill stroke markers" d=" M 442.00000000000006 469 L 863 458" stroke-opacity="0.6980392156862745" stroke-linecap="round" stroke-linejoin="round" stroke-miterlimit="10" stroke-width="2.5"/><path fill="none" stroke="rgb(153,51,0)" paint-order="fill stroke markers" d=" M 863 458 L 763 161" stroke-opacity="0.6980392156862745" stroke-linecap="round" stroke-linejoin="round" stroke-miterlimit="10" stroke-width="2.5"/><path fill="none" stroke="rgb(153,51,0)" paint-order="fill stroke markers" d=" M 1350.9121796100628 145.63887416695798 L 1029.912179610063 453.638874166958" stroke-opacity="0.6980392156862745" stroke-linecap="round" stroke-linejoin="round" stroke-miterlimit="10" stroke-width="2.5"/><path fill="none" stroke="rgb(153,51,0)" paint-order="fill stroke markers" d=" M 1029.912179610063 453.638874166958 L 1450.912179610063 442.638874166958" stroke-opacity="0.6980392156862745" stroke-linecap="round" stroke-linejoin="round" stroke-miterlimit="10" stroke-width="2.5"/><path fill="none" stroke="rgb(153,51,0)" paint-order="fill stroke markers" d=" M 1450.912179610063 442.638874166958 L 1350.9121796100628 145.63887416695798" stroke-opacity="0.6980392156862745" stroke-linecap="round" stroke-linejoin="round" stroke-miterlimit="10" stroke-width="2.5"/><path fill="none" stroke="rgb(0,0,0)" paint-order="fill stroke markers" d=" M 442.00000000000006 469 L 1846 -878.1401869158881" stroke-opacity="0.6980392156862745" stroke-linejoin="round" stroke-miterlimit="10" stroke-width="2.5" stroke-dasharray="10.5,8"/><path fill="none" stroke="rgb(0,0,0)" paint-order="fill stroke markers" d=" M 863 458 L 635.4288370682904 283.40472954195195" stroke-opacity="0.6980392156862745" stroke-linejoin="round" stroke-miterlimit="10" stroke-width="2.5" stroke-dasharray="10.5,8"/><path fill="none" stroke="rgb(0,0,0)" paint-order="fill stroke markers" d=" M 863 458 L 865.0864505697178 63.04789166519282" stroke-opacity="0.6980392156862745" stroke-linejoin="round" stroke-miterlimit="10" stroke-width="2.5" stroke-dasharray="10.5,8"/><path fill="rgb(77,77,255)" stroke="none" paint-order="stroke fill markers" d=" M 768 161 C 768 163.76142374915398 765.761423749154 166 763 166 C 760.238576250846 166 758 163.76142374915398 758 161 C 758 158.23857625084602 760.238576250846 156 763 156 C 765.761423749154 156 768 158.23857625084602 768 161 Z" fill-opacity="1"/><path fill="none" stroke="rgb(0,0,0)" paint-order="fill stroke markers" d=" M 768 161 C 768 163.76142374915398 765.761423749154 166 763 166 C 760.238576250846 166 758 163.76142374915398 758 161 C 758 158.23857625084602 760.238576250846 156 763 156 C 765.761423749154 156 768 158.23857625084602 768 161 Z" stroke-opacity="1" stroke-linecap="round" stroke-linejoin="round" stroke-miterlimit="10"/><text fill="rgb(77,77,255)" stroke="none" font-family="geogebra-sans-serif, sans-serif" font-size="16px" font-style="normal" font-weight="normal" text-decoration="normal" x="767" y="151" text-anchor="start" dominant-baseline="alphabetic" fill-opacity="1">A</text><text fill="none" stroke="rgb(255,255,255)" font-family="geogebra-sans-serif, sans-serif" font-size="16px" font-style="normal" font-weight="normal" text-decoration="normal" x="767" y="151" text-anchor="start" dominant-baseline="alphabetic" stroke-opacity="1" stroke-linejoin="bevel" stroke-miterlimit="10" stroke-width="3">A</text><text fill="rgb(77,77,255)" stroke="none" font-family="geogebra-sans-serif, sans-serif" font-size="16px" font-style="normal" font-weight="normal" text-decoration="normal" x="767" y="151" text-anchor="start" dominant-baseline="alphabetic" fill-opacity="1">A</text><path fill="rgb(77,77,255)" stroke="none" paint-order="stroke fill markers" d=" M 447.00000000000006 469 C 447.00000000000006 471.76142374915395 444.761423749154 474 442.00000000000006 474 C 439.2385762508461 474 437.00000000000006 471.76142374915395 437.00000000000006 469 C 437.00000000000006 466.23857625084605 439.2385762508461 464 442.00000000000006 464 C 444.761423749154 464 447.00000000000006 466.23857625084605 447.00000000000006 469 Z" fill-opacity="1"/><path fill="none" stroke="rgb(0,0,0)" paint-order="fill stroke markers" d=" M 447.00000000000006 469 C 447.00000000000006 471.76142374915395 444.761423749154 474 442.00000000000006 474 C 439.2385762508461 474 437.00000000000006 471.76142374915395 437.00000000000006 469 C 437.00000000000006 466.23857625084605 439.2385762508461 464 442.00000000000006 464 C 444.761423749154 464 447.00000000000006 466.23857625084605 447.00000000000006 469 Z" stroke-opacity="1" stroke-linecap="round" stroke-linejoin="round" stroke-miterlimit="10"/><text fill="rgb(77,77,255)" stroke="none" font-family="geogebra-sans-serif, sans-serif" font-size="16px" font-style="normal" font-weight="normal" text-decoration="normal" x="446" y="459" text-anchor="start" dominant-baseline="alphabetic" fill-opacity="1">B</text><text fill="none" stroke="rgb(255,255,255)" font-family="geogebra-sans-serif, sans-serif" font-size="16px" font-style="normal" font-weight="normal" text-decoration="normal" x="446" y="459" text-anchor="start" dominant-baseline="alphabetic" stroke-opacity="1" stroke-linejoin="bevel" stroke-miterlimit="10" stroke-width="3">B</text><text fill="rgb(77,77,255)" stroke="none" font-family="geogebra-sans-serif, sans-serif" font-size="16px" font-style="normal" font-weight="normal" text-decoration="normal" x="446" y="459" text-anchor="start" dominant-baseline="alphabetic" fill-opacity="1">B</text><path fill="rgb(77,77,255)" stroke="none" paint-order="stroke fill markers" d=" M 868 458 C 868 460.76142374915395 865.761423749154 463 863 463 C 860.238576250846 463 858 460.76142374915395 858 458 C 858 455.23857625084605 860.238576250846 453 863 453 C 865.761423749154 453 868 455.23857625084605 868 458 Z" fill-opacity="1"/><path fill="none" stroke="rgb(0,0,0)" paint-order="fill stroke markers" d=" M 868 458 C 868 460.76142374915395 865.761423749154 463 863 463 C 860.238576250846 463 858 460.76142374915395 858 458 C 858 455.23857625084605 860.238576250846 453 863 453 C 865.761423749154 453 868 455.23857625084605 868 458 Z" stroke-opacity="1" stroke-linecap="round" stroke-linejoin="round" stroke-miterlimit="10"/><text fill="rgb(77,77,255)" stroke="none" font-family="geogebra-sans-serif, sans-serif" font-size="16px" font-style="normal" font-weight="normal" text-decoration="normal" x="867" y="448" text-anchor="start" dominant-baseline="alphabetic" fill-opacity="1">C</text><text fill="none" stroke="rgb(255,255,255)" font-family="geogebra-sans-serif, sans-serif" font-size="16px" font-style="normal" font-weight="normal" text-decoration="normal" x="867" y="448" text-anchor="start" dominant-baseline="alphabetic" stroke-opacity="1" stroke-linejoin="bevel" stroke-miterlimit="10" stroke-width="3">C</text><text fill="rgb(77,77,255)" stroke="none" font-family="geogebra-sans-serif, sans-serif" font-size="16px" font-style="normal" font-weight="normal" text-decoration="normal" x="867" y="448" text-anchor="start" dominant-baseline="alphabetic" fill-opacity="1">C</text><path fill="rgb(125,125,255)" stroke="none" paint-order="stroke fill markers" d=" M 1355.9121796100628 145.63887416695798 C 1355.9121796100628 148.40029791611195 1353.6736033592167 150.63887416695798 1350.9121796100628 150.63887416695798 C 1348.150755860909 150.63887416695798 1345.9121796100628 148.40029791611195 1345.9121796100628 145.63887416695798 C 1345.9121796100628 142.877450417804 1348.150755860909 140.63887416695798 1350.9121796100628 140.63887416695798 C 1353.6736033592167 140.63887416695798 1355.9121796100628 142.877450417804 1355.9121796100628 145.63887416695798 Z" fill-opacity="1"/><path fill="none" stroke="rgb(0,0,0)" paint-order="fill stroke markers" d=" M 1355.9121796100628 145.63887416695798 C 1355.9121796100628 148.40029791611195 1353.6736033592167 150.63887416695798 1350.9121796100628 150.63887416695798 C 1348.150755860909 150.63887416695798 1345.9121796100628 148.40029791611195 1345.9121796100628 145.63887416695798 C 1345.9121796100628 142.877450417804 1348.150755860909 140.63887416695798 1350.9121796100628 140.63887416695798 C 1353.6736033592167 140.63887416695798 1355.9121796100628 142.877450417804 1355.9121796100628 145.63887416695798 Z" stroke-opacity="1" stroke-linecap="round" stroke-linejoin="round" stroke-miterlimit="10"/><text fill="rgb(125,125,255)" stroke="none" font-family="geogebra-sans-serif, sans-serif" font-size="16px" font-style="normal" font-weight="normal" text-decoration="normal" x="1355" y="136" text-anchor="start" dominant-baseline="alphabetic" fill-opacity="1">D</text><text fill="none" stroke="rgb(255,255,255)" font-family="geogebra-sans-serif, sans-serif" font-size="16px" font-style="normal" font-weight="normal" text-decoration="normal" x="1355" y="136" text-anchor="start" dominant-baseline="alphabetic" stroke-opacity="1" stroke-linejoin="bevel" stroke-miterlimit="10" stroke-width="3">D</text><text fill="rgb(125,125,255)" stroke="none" font-family="geogebra-sans-serif, sans-serif" font-size="16px" font-style="normal" font-weight="normal" text-decoration="normal" x="1355" y="136" text-anchor="start" dominant-baseline="alphabetic" fill-opacity="1">D</text><path fill="rgb(68,68,68)" stroke="none" paint-order="stroke fill markers" d=" M 1033.912179610063 453.638874166958 C 1033.912179610063 455.84801316628113 1032.1213186093862 457.638874166958 1029.912179610063 457.638874166958 C 1027.70304061074 457.638874166958 1025.912179610063 455.84801316628113 1025.912179610063 453.638874166958 C 1025.912179610063 451.4297351676348 1027.70304061074 449.638874166958 1029.912179610063 449.638874166958 C 1032.1213186093862 449.638874166958 1033.912179610063 451.4297351676348 1033.912179610063 453.638874166958 Z" fill-opacity="1"/><path fill="none" stroke="rgb(0,0,0)" paint-order="fill stroke markers" d=" M 1033.912179610063 453.638874166958 C 1033.912179610063 455.84801316628113 1032.1213186093862 457.638874166958 1029.912179610063 457.638874166958 C 1027.70304061074 457.638874166958 1025.912179610063 455.84801316628113 1025.912179610063 453.638874166958 C 1025.912179610063 451.4297351676348 1027.70304061074 449.638874166958 1029.912179610063 449.638874166958 C 1032.1213186093862 449.638874166958 1033.912179610063 451.4297351676348 1033.912179610063 453.638874166958 Z" stroke-opacity="1" stroke-linecap="round" stroke-linejoin="round" stroke-miterlimit="10"/><text fill="rgb(68,68,68)" stroke="none" font-family="geogebra-sans-serif, sans-serif" font-size="16px" font-style="normal" font-weight="normal" text-decoration="normal" x="1034" y="446" text-anchor="start" dominant-baseline="alphabetic" fill-opacity="1">E</text><text fill="none" stroke="rgb(255,255,255)" font-family="geogebra-sans-serif, sans-serif" font-size="16px" font-style="normal" font-weight="normal" text-decoration="normal" x="1034" y="446" text-anchor="start" dominant-baseline="alphabetic" stroke-opacity="1" stroke-linejoin="bevel" stroke-miterlimit="10" stroke-width="3">E</text><text fill="rgb(68,68,68)" stroke="none" font-family="geogebra-sans-serif, sans-serif" font-size="16px" font-style="normal" font-weight="normal" text-decoration="normal" x="1034" y="446" text-anchor="start" dominant-baseline="alphabetic" fill-opacity="1">E</text><path fill="rgb(68,68,68)" stroke="none" paint-order="stroke fill markers" d=" M 1454.912179610063 442.638874166958 C 1454.912179610063 444.84801316628113 1453.1213186093862 446.638874166958 1450.912179610063 446.638874166958 C 1448.70304061074 446.638874166958 1446.912179610063 444.84801316628113 1446.912179610063 442.638874166958 C 1446.912179610063 440.4297351676348 1448.70304061074 438.638874166958 1450.912179610063 438.638874166958 C 1453.1213186093862 438.638874166958 1454.912179610063 440.4297351676348 1454.912179610063 442.638874166958 Z" fill-opacity="1"/><path fill="none" stroke="rgb(0,0,0)" paint-order="fill stroke markers" d=" M 1454.912179610063 442.638874166958 C 1454.912179610063 444.84801316628113 1453.1213186093862 446.638874166958 1450.912179610063 446.638874166958 C 1448.70304061074 446.638874166958 1446.912179610063 444.84801316628113 1446.912179610063 442.638874166958 C 1446.912179610063 440.4297351676348 1448.70304061074 438.638874166958 1450.912179610063 438.638874166958 C 1453.1213186093862 438.638874166958 1454.912179610063 440.4297351676348 1454.912179610063 442.638874166958 Z" stroke-opacity="1" stroke-linecap="round" stroke-linejoin="round" stroke-miterlimit="10"/><text fill="rgb(68,68,68)" stroke="none" font-family="geogebra-sans-serif, sans-serif" font-size="16px" font-style="normal" font-weight="normal" text-decoration="normal" x="1455" y="435" text-anchor="start" dominant-baseline="alphabetic" fill-opacity="1">F</text><text fill="none" stroke="rgb(255,255,255)" font-family="geogebra-sans-serif, sans-serif" font-size="16px" font-style="normal" font-weight="normal" text-decoration="normal" x="1455" y="435" text-anchor="start" dominant-baseline="alphabetic" stroke-opacity="1" stroke-linejoin="bevel" stroke-miterlimit="10" stroke-width="3">F</text><text fill="rgb(68,68,68)" stroke="none" font-family="geogebra-sans-serif, sans-serif" font-size="16px" font-style="normal" font-weight="normal" text-decoration="normal" x="1455" y="435" text-anchor="start" dominant-baseline="alphabetic" fill-opacity="1">F</text><path fill="rgb(125,125,255)" stroke="none" paint-order="stroke fill markers" d=" M 640.4288370682904 283.40472954195195 C 640.4288370682904 286.1661532911059 638.1902608174444 288.40472954195195 635.4288370682904 288.40472954195195 C 632.6674133191364 288.40472954195195 630.4288370682904 286.1661532911059 630.4288370682904 283.40472954195195 C 630.4288370682904 280.643305792798 632.6674133191364 278.40472954195195 635.4288370682904 278.40472954195195 C 638.1902608174444 278.40472954195195 640.4288370682904 280.643305792798 640.4288370682904 283.40472954195195 Z" fill-opacity="1"/><path fill="none" stroke="rgb(0,0,0)" paint-order="fill stroke markers" d=" M 640.4288370682904 283.40472954195195 C 640.4288370682904 286.1661532911059 638.1902608174444 288.40472954195195 635.4288370682904 288.40472954195195 C 632.6674133191364 288.40472954195195 630.4288370682904 286.1661532911059 630.4288370682904 283.40472954195195 C 630.4288370682904 280.643305792798 632.6674133191364 278.40472954195195 635.4288370682904 278.40472954195195 C 638.1902608174444 278.40472954195195 640.4288370682904 280.643305792798 640.4288370682904 283.40472954195195 Z" stroke-opacity="1" stroke-linecap="round" stroke-linejoin="round" stroke-miterlimit="10"/><text fill="rgb(125,125,255)" stroke="none" font-family="geogebra-sans-serif, sans-serif" font-size="16px" font-style="normal" font-weight="normal" text-decoration="normal" x="639" y="273" text-anchor="start" dominant-baseline="alphabetic" fill-opacity="1">G</text><text fill="none" stroke="rgb(255,255,255)" font-family="geogebra-sans-serif, sans-serif" font-size="16px" font-style="normal" font-weight="normal" text-decoration="normal" x="639" y="273" text-anchor="start" dominant-baseline="alphabetic" stroke-opacity="1" stroke-linejoin="bevel" stroke-miterlimit="10" stroke-width="3">G</text><text fill="rgb(125,125,255)" stroke="none" font-family="geogebra-sans-serif, sans-serif" font-size="16px" font-style="normal" font-weight="normal" text-decoration="normal" x="639" y="273" text-anchor="start" dominant-baseline="alphabetic" fill-opacity="1">G</text><path fill="rgb(125,125,255)" stroke="none" paint-order="stroke fill markers" d=" M 870.0864505697178 63.04789166519282 C 870.0864505697178 65.80931541434678 867.8478743188718 68.04789166519282 865.0864505697178 68.04789166519282 C 862.3250268205638 68.04789166519282 860.0864505697178 65.80931541434678 860.0864505697178 63.04789166519282 C 860.0864505697178 60.28646791603885 862.3250268205638 58.04789166519282 865.0864505697178 58.04789166519282 C 867.8478743188718 58.04789166519282 870.0864505697178 60.28646791603885 870.0864505697178 63.04789166519282 Z" fill-opacity="1"/><path fill="none" stroke="rgb(0,0,0)" paint-order="fill stroke markers" d=" M 870.0864505697178 63.04789166519282 C 870.0864505697178 65.80931541434678 867.8478743188718 68.04789166519282 865.0864505697178 68.04789166519282 C 862.3250268205638 68.04789166519282 860.0864505697178 65.80931541434678 860.0864505697178 63.04789166519282 C 860.0864505697178 60.28646791603885 862.3250268205638 58.04789166519282 865.0864505697178 58.04789166519282 C 867.8478743188718 58.04789166519282 870.0864505697178 60.28646791603885 870.0864505697178 63.04789166519282 Z" stroke-opacity="1" stroke-linecap="round" stroke-linejoin="round" stroke-miterlimit="10"/><text fill="rgb(125,125,255)" stroke="none" font-family="geogebra-sans-serif, sans-serif" font-size="16px" font-style="normal" font-weight="normal" text-decoration="normal" x="869" y="53" text-anchor="start" dominant-baseline="alphabetic" fill-opacity="1">H</text><text fill="none" stroke="rgb(255,255,255)" font-family="geogebra-sans-serif, sans-serif" font-size="16px" font-style="normal" font-weight="normal" text-decoration="normal" x="869" y="53" text-anchor="start" dominant-baseline="alphabetic" stroke-opacity="1" stroke-linejoin="bevel" stroke-miterlimit="10" stroke-width="3">H</text><text fill="rgb(125,125,255)" stroke="none" font-family="geogebra-sans-serif, sans-serif" font-size="16px" font-style="normal" font-weight="normal" text-decoration="normal" x="869" y="53" text-anchor="start" dominant-baseline="alphabetic" fill-opacity="1">H</text></g></g></svg>